PathFileType	4	(X/Y/Z)	C:/Users/beibeiliu/ov580/test_trc/User2\sequence.15_training_dense_right.trc
DataRate	CameraRate	NumFrames	NumMarkers	Units	OrigDataRate	OrigDataStartFrame	OrigNumFrames
120	120	20	19	mm	120	69	273
Frame#	Time	ThumbCMC			ThumbMCP			ThumbIP			ThumbTip			IndexMCP			IndexPIP			IndexTip			MiddleMCP			MiddlePIP			MiddleTip			RingMCP			RingPIP			RingTip			PinkyMCP			PinkyPIP			PinkyTip			BackHand1			BackHand2			BackHand3	
		X0	Y0	Z0	X1	Y1	Z1	X2	Y2	Z2	X3	Y3	Z3	X4	Y4	Z4	X5	Y5	Z5	X6	Y6	Z6	X7	Y7	Z7	X8	Y8	Z8	X9	Y9	Z9	X10	Y10	Z10	X11	Y11	Z11	X12	Y12	Z12	X13	Y13	Z13	X14	Y14	Z14	X15	Y15	Z15	X16	Y16	Z16	X17	Y17	Z17	X18	Y18	Z18	
68	0.566667	31.1309	37.361	53.4727	15.2434	31.4112	26.4694	-1.35044	30.8722	-8.55231	-8.57901	26.3995	-29.9807	34.9264	40.5108	-25.4212	19.8988	12.0374	-33.6243	17.2598	-4.15075	-0.978401	50.8756	23.4372	-37.2189	34.523	-4.96239	-30.8076	37.3394	-5.43251	10.031	70.5163	12.5124	-37.4169	48.3083	-9.33341	-35.8537	48.0267	-6.83434	2.92145	92.4169	12.5522	-26.4488	83.9206	10.2715	-47.7362	78.359	11.3796	-76.2619	95.0508	34.8669	21.6038	103.029	32.3001	51.8605	72.1573	52.6029	39.6945	
69	0.575	40.0246	38.2042	43.4984	21.0119	30.733	19.9379	7.64895	25.5362	-16.2018	-2.24426	17.6755	-32.806	37.1235	30.1876	-33.9726	21.9857	2.52729	-34.442	20.2184	-9.27732	-1.24754	56.2529	14.23	-38.455	35.5996	-13.3045	-29.3649	43.3327	-8.18562	11.2791	75.2348	0.632814	-36.4636	52.0155	-19.9736	-33.4721	54.3573	-15.8987	4.54193	95.6457	1.70719	-27.7576	93.6615	-7.63468	-48.9201	87.0876	-11.1671	-73.1013	102.647	27.4591	14.5568	104.628	32.9463	51.6642	74.6433	51.4159	36.7857	
70	0.583333	44.8879	39.7135	42.101	25.0502	29.9124	15.2641	7.34096	23.2761	-16.1921	-2.12177	14.0461	-34.9811	41.9535	17.564	-36.6895	21.1875	-5.04696	-31.8245	18.6938	-9.0856	6.18155	60.0045	-0.168753	-37.2986	33.0707	-20.0527	-25.9367	41.5827	-10.4687	13.3131	70.877	-12.6637	-32.8178	46.9488	-31.4063	-25.5129	48.0647	-17.0942	9.52505	95.2462	-13.7833	-26.3658	88.2897	-26.3183	-49.2733	81.0597	-30.53	-67.8874	104.413	16.1325	11.4303	109.464	25.661	43.5824	83.9885	47.995	27.1494	
71	0.591667	52.0557	43.8152	37.3178	27.1828	37.6707	15.5199	12.643	22.9268	-14.9596	-3.51709	15.3687	-34.5714	41.8131	14.2836	-35.0531	18.3968	-8.04586	-25.5001	13.9492	-5.64165	7.2492	50.0907	-8.20549	-34.3018	24.9887	-22.2278	-17.2036	37.5719	-1.06175	18.4856	60.4387	-25.9775	-25.8639	37.9274	-38.4889	-10.8315	45.3491	-14.9798	20.4482	87.585	-31.5488	-17.2095	75.8331	-41.065	-38.2242	65.26	-51.7429	-56.4898	106.761	5.25274	13.6623	113.527	18.3134	46.6371	89.6556	40.6764	26.6005	
72	0.6	61.5403	48.0101	37.8643	34.0915	42.0601	12.6023	13.9062	30.6528	-12.9963	-3.69383	22.7796	-29.1917	42.0585	11.1946	-31.397	9.97937	-1.87888	-19.0541	12.7337	3.99192	15.5349	42.6731	-12.7098	-27.2497	15.9594	-18.5552	-4.98748	33.317	3.23455	22.1949	48.2179	-29.2782	-16.7872	20.8891	-28.633	1.63283	39.1067	-12.0749	28.911	72.0734	-39.8117	-8.70919	53.1237	-52.5839	-29.9976	40.6843	-65.5454	-47.3394	101.527	-6.76137	15.1807	113.832	4.05643	41.3354	93.9571	33.3899	18.3228	
73	0.608333	69.8185	48.1217	30.826	40.6957	52.788	11.7972	16.9209	41.0906	-10.484	-1.43453	36.704	-25.5908	35.9661	13.0627	-29.8211	4.3229	14.0601	-16.7534	8.3536	19.4507	17.2767	32.5853	-9.72925	-21.9441	7.0928	-5.97448	-0.540575	31.9657	12.5042	25.9074	33.8244	-25.9012	-8.9468	7.831	-19.7159	12.8805	31.9348	-1.71102	34.4803	53.1969	-44.7532	-0.197047	32.4204	-56.0488	-16.626	15.2589	-63.7063	-35.4283	89.9826	-14.903	16.3914	109.632	-3.64912	44.7693	97.7399	24.8431	19.5571	
74	0.616667	78.5567	47.4771	29.1596	51.0703	53.2398	7.6189	25.4243	50.1462	-12.3153	4.5485	46.6049	-26.815	34.1037	16.3892	-27.8265	3.72479	25.1621	-12.7924	14.3604	30.4351	19.6907	24.635	-3.64558	-17.352	2.9348	8.62562	6.98615	32.4393	20.0661	29.5971	22.9111	-20.5158	-3.69023	1.22948	-2.80679	18.5912	25.2585	9.76224	36.5725	36.7085	-40.8594	6.42661	12.0959	-46.5289	-10.11	-5.89011	-48.8735	-26.0543	80.2605	-23.7135	20.0373	104.188	-12.0701	47.1586	97.5272	13.7852	15.0658	
75	0.625	86.8879	45.0992	24.0917	63.7847	57.8949	3.69145	36.7137	58.482	-17.8029	15.5427	60.0794	-35.3633	32.3779	20.5461	-28.2687	8.499	35.9232	-13.7578	22.8963	46.5167	16.6771	24.4303	3.82066	-17.2657	3.90964	26.35	5.6177	39.8088	29.5384	27.1596	11.1231	-10.2412	-1.85458	-2.9294	10.6429	11.9144	25.8359	19.8087	34.3118	25.1008	-32.7092	11.4355	2.55791	-33.6128	-1.1908	-18.6708	-34.9608	-18.8019	71.6103	-25.6737	23.4674	96.3642	-17.3503	48.8614	98.2792	7.0999	13.6182	
76	0.633333	94.4187	40.6433	21.4341	71.4329	53.6081	-5.17685	46.5862	58.6048	-24.9529	29.6191	67.3652	-41.7245	36.7545	18.5541	-29.5904	15.175	45.099	-20.9249	33.4007	51.0111	13.9849	21.5042	10.1718	-18.3476	7.00059	36.3236	3.3641	40.7648	37.2907	23.1641	12.1323	-2.14295	-3.88281	-1.55483	24.7436	11.1196	27.635	28.1361	29.7807	17.486	-22.6145	11.9359	-4.56845	-20.6756	-1.34072	-24.682	-17.9916	-20.4546	67.4519	-22.2227	28.1007	88.1919	-23.8295	49.0525	97.8693	0.09704	18.9944	
77	0.641667	99.7137	35.0446	16.6672	80.1109	49.3419	-5.269	58.0027	56.7208	-31.1934	40.8487	65.6668	-48.6572	39.2191	23.5333	-37.2177	23.0121	48.2447	-25.0929	39.4969	53.5909	6.96134	21.8662	14.2325	-20.0031	14.6283	44.4484	-5.50985	45.5483	38.623	21.2672	5.5003	4.73834	-6.09028	2.47167	32.3336	1.1941	30.9606	35.7901	22.0992	9.97323	-17.2233	13.2369	-11.3898	-11.621	-4.0043	-30.6741	-6.16863	-22.3999	59.0292	-21.828	27.211	79.8999	-23.0447	51.6875	91.8392	-6.56848	18.9263	
78	0.65	105.245	29.8257	16.1904	89.9203	45.7377	-9.48956	64.6531	51.2541	-40.837	47.797	57.5033	-54.9283	46.2091	17.664	-36.4093	31.9979	48.9998	-33.0865	46.9198	54.28	0.544794	28.213	12.2097	-23.3232	18.0082	45.1721	-9.07416	49.5031	41.1309	16.2511	9.6311	7.4433	-9.42484	5.29551	37.6852	-0.961574	35.0489	35.7007	19.0492	8.95346	-11.6618	6.86031	-8.31201	-6.32416	-8.04713	-21.6249	0.83626	-29.5133	58.056	-22.9597	27.9917	81.8047	-23.1191	52.9381	91.3367	-10.4642	18.6497	
79	0.658333	107.334	24.857	14.769	95.6058	38.3862	-13.5763	75.253	45.6197	-37.268	58.1891	50.0865	-57.4987	52.1833	17.3216	-42.9753	37.6824	45.6056	-34.9845	56.431	54.311	-6.54671	34.1279	11.1649	-28.7279	25.8778	44.7697	-18.2185	57.7048	38.9128	11.7168	18.2045	5.60367	-14.4284	12.7868	38.5011	-10.8702	39.9617	35.0501	14.811	11.1872	-11.1335	4.18281	0.0177042	-2.57491	-16.854	-18.2749	2.87131	-37.268	58.319	-23.0462	29.4844	78.5464	-23.3724	52.4004	94.4029	-12.3388	21.1402	
80	0.666667	111.714	20.2326	16.0127	99.319	31.8772	-16.4587	81.6072	37.9229	-43.5365	70.4173	45.3105	-64.9747	55.8793	9.69403	-44.1834	46.5936	41.3271	-42.0557	60.6733	51.0718	-10.046	37.3165	7.75488	-31.6326	30.5747	41.4675	-22.6289	59.5577	38.9382	5.99615	22	2.13138	-19.1632	17.937	33.5774	-19.2373	43.7533	35.6512	8.17203	17.927	-11.4702	0.120727	0.675457	-4.61019	-22.5054	-12.8144	3.39619	-44.9178	60.135	-23.9569	28.3547	77.0821	-22.7953	54.7164	96.1742	-15.2888	22.6651	
81	0.675	114.035	18.4326	15.6072	103.891	28.4442	-15.4367	89.4063	31.7914	-46.2528	74.643	34.8202	-64.7404	65.9119	5.28983	-47.6436	54.2623	35.9675	-46.229	67.0008	48.1438	-13.2677	40.4523	3.39572	-35.7346	38.0652	37.463	-25.1148	64.7495	34.42	2.37353	25.1106	-1.25054	-23.7667	25.0572	31.164	-24.0675	45.4067	31.8783	7.01097	20.773	-15.286	-4.36165	5.59948	-10.2266	-26.1531	-3.8101	-5.50794	-48.6064	62.4688	-25.0972	30.0475	76.3973	-24.4817	58.4549	95.6954	-19.2293	24.9017	
82	0.683333	119.26	18.8768	13.5816	108.746	26.1841	-16.1727	93.1531	25.9265	-47.2159	81.6897	28.9067	-69.0962	69.9437	0.735018	-47.5844	58.7529	28.9622	-49.7086	66.0805	42.4578	-18.7231	51.3504	-2.91536	-37.6203	44.8089	30.8006	-35.9712	69.0822	30.1624	1.70131	32.9403	-6.33875	-28.4069	31.2304	24.7132	-27.8447	49.0938	28.3122	-0.0932979	29.3835	-20.7991	-4.5659	13.689	-17.641	-29.5592	6.48063	-14.0352	-51.8367	64.4933	-29.0621	25.7142	81.5573	-25.9097	54.2883	101.579	-19.092	22.2993	
83	0.691667	120.268	22.3789	17.9048	113.453	29.664	-17.3957	101.706	29.1386	-47.3552	89.3251	28.7167	-70.8455	81.4085	-3.20268	-47.8374	65.6469	28.3543	-51.7735	72.9265	42.8625	-19.2539	59.7667	-8.73762	-39.1832	48.2648	25.0382	-37.1005	68.7492	30.6196	-2.25992	46.1042	-13.684	-29.6586	33.7891	14.5459	-32.7267	56.6316	23.8705	-2.57644	38.0918	-27.4976	-11.9331	26.5086	-25.3701	-36.752	18.7269	-24.9451	-56.6338	73.33	-31.9075	26.6756	86.659	-23.9857	58.8295	110.379	-18.4331	24.3956	
84	0.7	121.339	30.2481	19.0502	113.044	34.9143	-13.6634	104.525	34.9503	-49.1949	92.9703	33.746	-68.5352	95.4093	2.49918	-52.0439	70.2425	24.7312	-52.2849	71.5704	40.0352	-19.9887	74.5972	-9.23154	-41.2378	53.525	22.8573	-38.4152	68.6419	28.9066	-0.770957	57.7326	-16.8294	-36.5927	38.593	8.01101	-34.1333	59.5142	19.8853	-6.06422	52.9727	-34.4345	-10.8033	40.7242	-36.503	-36.7161	37.1513	-34.3076	-60.9389	89.6377	-30.6152	20.3696	96.6213	-24.0805	53.7669	117.637	-11.9531	23.914	
85	0.708333	118.276	37.9636	20.7244	110.949	46.3272	-10.7847	101.882	42.8772	-44.1281	94.3816	44.8231	-68.1957	103.87	8.79947	-48.704	75.176	26.5515	-54.6734	68.5863	40.0301	-20.0205	84.4672	-3.84075	-46.7588	57.4075	16.2308	-42.6489	68.3731	29.0277	-1.66943	67.2926	-20.5108	-38.2755	49.9542	2.97941	-39.809	59.047	13.8965	-4.09284	69.3846	-37.9896	-20.3909	61.0514	-40.3271	-42.9092	57.3018	-38.5547	-70.5329	101.741	-26.9263	21.4833	104.649	-19.7813	55.2931	125.163	-2.31885	29.0633	
86	0.716667	111.304	47.295	24.7178	101.434	58.0637	-4.95813	95.6796	55.9702	-42.3623	86.5693	56.2978	-63.1813	105.149	20.9754	-49.7636	76.4433	29.4056	-53.5634	62.5418	36.331	-16.2489	92.5944	-0.0608959	-46.1163	58.868	15.8528	-41.564	66.8645	26.6463	-1.85168	79.3043	-17.6929	-42.9428	56.1976	1.94887	-40.0689	65.545	12.649	-6.13624	86.7718	-35.3293	-24.1316	82.2666	-36.0412	-50.4666	80.373	-36.8356	-72.8167	111.819	-22.1998	16.9632	115.684	-19.1891	52.1916	130.55	8.26239	26.2902	
87	0.725	96.798	51.2374	33.2166	86.8345	59.631	-1.3972	79.3242	62.9741	-36.3399	72.6304	60.8344	-60.2407	100.228	32.2212	-46.1707	69.4876	33.3351	-50.2357	53.1135	35.7833	-17.6423	93.152	11.4593	-47.2572	59.5819	17.0831	-41.2739	60.9592	19.0107	-1.19045	89.5465	-9.54724	-45.0279	59.1563	-3.4338	-41.0162	63.089	6.89557	-7.24344	101.072	-30.6807	-28.7112	96.5271	-28.5422	-54.0991	95.2017	-30.1833	-80.2201	121.802	-14.434	17.1429	120.704	-11.5742	48.0453	126.263	20.9755	31.2774	
